<svg xmlns="http://www.w3.org/2000/svg" width="800" height="600" viewBox="0 0 800 600" role="img">
  <defs>
    <linearGradient id="bg" x1="0" y1="0" x2="1" y2="1">
      <stop offset="0" stop-color="#f7ecd9"/><stop offset="1" stop-color="#e3c59c"/>
    </linearGradient>
    <radialGradient id="pl" cx="0.4" cy="0.35" r="0.8">
      <stop offset="0" stop-color="#ffffff"/>
      <stop offset="1" stop-color="#efe6d8"/>
    </radialGradient>
  </defs>
  <rect width="800" height="600" fill="url(#bg)"/>
  <circle cx="690" cy="70" r="210" fill="#f0a94c" opacity="0.22"/>
  <circle cx="90" cy="540" r="130" fill="#f0a94c" opacity="0.16"/>
  <ellipse cx="400" cy="478" rx="215" ry="30" fill="#1a1208" opacity="0.10"/>
  <circle cx="400" cy="300" r="196" fill="url(#pl)"/>
  <circle cx="400" cy="300" r="196" fill="none" stroke="#1a1208" opacity="0.10" stroke-width="3"/>
  <circle cx="400" cy="300" r="166" fill="none" stroke="#1a1208" opacity="0.07" stroke-width="2"/><circle cx="400" cy="300" r="150" fill="#f6efe0"/><g transform="rotate(-16 400 250)">
        <rect x="250" y="244" width="300" height="12" rx="6" fill="#b9b2a6"/>
        <rect x="278" y="228" width="244" height="44" rx="22" fill="#d9a15e"/>
        <rect x="278" y="228" width="244" height="16" rx="8" fill="#ffffff" opacity="0.12"/><rect x="300" y="228" width="7" height="44" rx="3" fill="#8a5321" opacity="0.55"/><rect x="346" y="228" width="7" height="44" rx="3" fill="#8a5321" opacity="0.55"/><rect x="392" y="228" width="7" height="44" rx="3" fill="#8a5321" opacity="0.55"/><rect x="438" y="228" width="7" height="44" rx="3" fill="#8a5321" opacity="0.55"/><rect x="484" y="228" width="7" height="44" rx="3" fill="#8a5321" opacity="0.55"/></g><g transform="rotate(-12 400 305)">
        <rect x="250" y="299" width="300" height="12" rx="6" fill="#b9b2a6"/>
        <rect x="278" y="283" width="244" height="44" rx="22" fill="#d9a15e"/>
        <rect x="278" y="283" width="244" height="16" rx="8" fill="#ffffff" opacity="0.12"/><rect x="300" y="283" width="7" height="44" rx="3" fill="#8a5321" opacity="0.55"/><rect x="346" y="283" width="7" height="44" rx="3" fill="#8a5321" opacity="0.55"/><rect x="392" y="283" width="7" height="44" rx="3" fill="#8a5321" opacity="0.55"/><rect x="438" y="283" width="7" height="44" rx="3" fill="#8a5321" opacity="0.55"/><rect x="484" y="283" width="7" height="44" rx="3" fill="#8a5321" opacity="0.55"/></g><g transform="rotate(-8 400 360)">
        <rect x="250" y="354" width="300" height="12" rx="6" fill="#b9b2a6"/>
        <rect x="278" y="338" width="244" height="44" rx="22" fill="#d9a15e"/>
        <rect x="278" y="338" width="244" height="16" rx="8" fill="#ffffff" opacity="0.12"/><rect x="300" y="338" width="7" height="44" rx="3" fill="#8a5321" opacity="0.55"/><rect x="346" y="338" width="7" height="44" rx="3" fill="#8a5321" opacity="0.55"/><rect x="392" y="338" width="7" height="44" rx="3" fill="#8a5321" opacity="0.55"/><rect x="438" y="338" width="7" height="44" rx="3" fill="#8a5321" opacity="0.55"/><rect x="484" y="338" width="7" height="44" rx="3" fill="#8a5321" opacity="0.55"/></g><circle cx="497" cy="392" r="30" fill="#f6d357"/><path d="M497 362 A30 30 0 0 1 497 422 Z" fill="#fcecad"/>
             <circle cx="305" cy="215" r="16" fill="#5c7457"/><circle cx="336" cy="196" r="10" fill="#8aa585"/></svg>
