<svg xmlns="http://www.w3.org/2000/svg" width="800" height="600" viewBox="0 0 800 600" role="img">
  <defs>
    <linearGradient id="bg" x1="0" y1="0" x2="1" y2="1">
      <stop offset="0" stop-color="#f6e6e6"/><stop offset="1" stop-color="#dcb5b5"/>
    </linearGradient>
    <radialGradient id="pl" cx="0.4" cy="0.35" r="0.8">
      <stop offset="0" stop-color="#ffffff"/>
      <stop offset="1" stop-color="#efe6d8"/>
    </radialGradient>
  </defs>
  <rect width="800" height="600" fill="url(#bg)"/>
  <circle cx="690" cy="70" r="210" fill="#d98ba0" opacity="0.22"/>
  <circle cx="90" cy="540" r="130" fill="#d98ba0" opacity="0.16"/>
  <ellipse cx="400" cy="478" rx="215" ry="30" fill="#1a1208" opacity="0.10"/><ellipse cx="400" cy="430" rx="170" ry="34" fill="#ffffff" opacity="0.92"/>
               <path d="M300 240 H500 L476 392 A26 26 0 0 1 450 414 H350 A26 26 0 0 1 324 392 Z" fill="#ffffff"/>
               <path d="M500 262 a54 54 0 1 1 0 96" fill="none" stroke="#ffffff" stroke-width="18" stroke-linecap="round"/>
               <ellipse cx="400" cy="243" rx="100" ry="26" fill="#e6a8a8"/>
               <ellipse cx="400" cy="241" rx="84" ry="19" fill="#f0bcbc"/><circle cx="398.1" cy="243.1" r="4.025568486203238" fill="#8c6239"/><circle cx="351.0" cy="238.6" r="2.9043775801101592" fill="#8c6239"/><circle cx="396.9" cy="238.4" r="2.732531667096788" fill="#8c6239"/><circle cx="368.4" cy="249.9" r="4.971524955225887" fill="#8c6239"/><circle cx="358.5" cy="242.3" r="4.506043316100744" fill="#8c6239"/><circle cx="446.4" cy="246.0" r="2.305660605572937" fill="#8c6239"/><circle cx="415.5" cy="241.1" r="2.15189886100213" fill="#8c6239"/><circle cx="369.4" cy="237.1" r="4.864846350096561" fill="#8c6239"/><circle cx="357.7" cy="238.0" r="2.8364980224689926" fill="#8c6239"/><circle cx="411.1" cy="250.0" r="4.203045607639032" fill="#8c6239"/><circle cx="353.1" cy="240.3" r="2.224758029088731" fill="#8c6239"/><circle cx="356.8" cy="246.7" r="2.2469856740194305" fill="#8c6239"/><path d="M368 186 q18 -26 0 -50 q-18 -24 0 -46" stroke="#ffffff" stroke-width="7" fill="none" opacity="0.55" stroke-linecap="round"/>
               <path d="M432 190 q18 -26 0 -50 q-18 -24 0 -46" stroke="#ffffff" stroke-width="7" fill="none" opacity="0.4" stroke-linecap="round"/></svg>
