<svg xmlns="http://www.w3.org/2000/svg" width="1600" height="900" viewBox="0 0 1600 900" role="img">
  <defs>
    <linearGradient id="sky" x1="0" y1="0" x2="0.6" y2="1">
      <stop offset="0" stop-color="#16281d"/><stop offset="1" stop-color="#3f3a15"/>
    </linearGradient>
    <radialGradient id="glow" cx="0.5" cy="0.5" r="0.5">
      <stop offset="0" stop-color="#cddb6a" stop-opacity="0.85"/>
      <stop offset="1" stop-color="#cddb6a" stop-opacity="0"/>
    </radialGradient>
  </defs>
  <rect width="1600" height="900" fill="url(#sky)"/>
  <circle cx="900" cy="600" r="480" fill="url(#glow)"/>
  <circle cx="1300" cy="190" r="96" fill="#e9e3b0" opacity="0.9"/>
  <circle cx="1266" cy="172" r="80" fill="#16281d" opacity="0.55"/><path d="M150 760 V523.5 Q150 330 300 330 Q450 330 450 523.5 V760 Z" fill="#0a150e" opacity="0.5"/><path d="M195 760 V578.5 Q195 430 300 430 Q405 430 405 578.5 V760 Z" fill="#16281d" opacity="0.55"/><path d="M610 790 V504 Q610 270 800 270 Q990 270 990 504 V790 Z" fill="#0a150e" opacity="0.35"/><path d="M665 790 V570 Q665 390 800 390 Q935 390 935 570 V790 Z" fill="#16281d" opacity="0.4"/><path d="M1120 770 V533.5 Q1120 340 1270 340 Q1420 340 1420 533.5 V770 Z" fill="#0a150e" opacity="0.28"/><line x1="180" y1="0" x2="180" y2="90" stroke="#c9a227" stroke-width="3" opacity="0.6"/>
          <circle cx="180" cy="116" r="26" fill="#c9a227" opacity="0.9"/>
          <circle cx="180" cy="116" r="46" fill="#c9a227" opacity="0.18"/><line x1="480" y1="0" x2="480" y2="150" stroke="#c9a227" stroke-width="3" opacity="0.6"/>
          <circle cx="480" cy="176" r="26" fill="#c9a227" opacity="0.9"/>
          <circle cx="480" cy="176" r="46" fill="#c9a227" opacity="0.18"/><line x1="780" y1="0" x2="780" y2="90" stroke="#c9a227" stroke-width="3" opacity="0.6"/>
          <circle cx="780" cy="116" r="26" fill="#c9a227" opacity="0.9"/>
          <circle cx="780" cy="116" r="46" fill="#c9a227" opacity="0.18"/><line x1="1080" y1="0" x2="1080" y2="150" stroke="#c9a227" stroke-width="3" opacity="0.6"/>
          <circle cx="1080" cy="176" r="26" fill="#c9a227" opacity="0.9"/>
          <circle cx="1080" cy="176" r="46" fill="#c9a227" opacity="0.18"/><line x1="1380" y1="0" x2="1380" y2="90" stroke="#c9a227" stroke-width="3" opacity="0.6"/>
          <circle cx="1380" cy="116" r="26" fill="#c9a227" opacity="0.9"/>
          <circle cx="1380" cy="116" r="46" fill="#c9a227" opacity="0.18"/><circle cx="1121" cy="244" r="2.6" fill="#ffffff" opacity="0.32"/><circle cx="240" cy="349" r="1.2" fill="#ffffff" opacity="0.36"/><circle cx="152" cy="447" r="1.3" fill="#ffffff" opacity="0.11"/><circle cx="622" cy="417" r="2.4" fill="#ffffff" opacity="0.36"/><circle cx="525" cy="300" r="2.6" fill="#ffffff" opacity="0.18"/><circle cx="1202" cy="44" r="2.6" fill="#ffffff" opacity="0.37"/><circle cx="1588" cy="273" r="0.9" fill="#ffffff" opacity="0.16"/><circle cx="1052" cy="433" r="2.6" fill="#ffffff" opacity="0.45"/><circle cx="556" cy="184" r="0.9" fill="#ffffff" opacity="0.25"/><circle cx="382" cy="475" r="2.5" fill="#ffffff" opacity="0.49"/><circle cx="664" cy="373" r="2.1" fill="#ffffff" opacity="0.35"/><circle cx="356" cy="567" r="1.8" fill="#ffffff" opacity="0.10"/><circle cx="1469" cy="162" r="2.6" fill="#ffffff" opacity="0.14"/><circle cx="325" cy="332" r="1.0" fill="#ffffff" opacity="0.36"/><circle cx="252" cy="319" r="1.7" fill="#ffffff" opacity="0.38"/><circle cx="1008" cy="494" r="1.9" fill="#ffffff" opacity="0.26"/><circle cx="792" cy="285" r="2.1" fill="#ffffff" opacity="0.30"/><circle cx="548" cy="267" r="1.3" fill="#ffffff" opacity="0.24"/><circle cx="423" cy="550" r="1.5" fill="#ffffff" opacity="0.37"/><circle cx="992" cy="66" r="1.4" fill="#ffffff" opacity="0.17"/><circle cx="1016" cy="507" r="1.7" fill="#ffffff" opacity="0.40"/><circle cx="1353" cy="422" r="3.0" fill="#ffffff" opacity="0.47"/><circle cx="338" cy="129" r="2.2" fill="#ffffff" opacity="0.13"/><circle cx="91" cy="156" r="2.2" fill="#ffffff" opacity="0.21"/><circle cx="1406" cy="193" r="2.0" fill="#ffffff" opacity="0.14"/><circle cx="1151" cy="562" r="0.8" fill="#ffffff" opacity="0.12"/><circle cx="176" cy="416" r="1.7" fill="#ffffff" opacity="0.47"/><circle cx="802" cy="295" r="0.7" fill="#ffffff" opacity="0.20"/><circle cx="1558" cy="485" r="2.6" fill="#ffffff" opacity="0.26"/><circle cx="1043" cy="60" r="1.7" fill="#ffffff" opacity="0.13"/><circle cx="244" cy="497" r="1.1" fill="#ffffff" opacity="0.28"/><circle cx="846" cy="523" r="0.8" fill="#ffffff" opacity="0.20"/><circle cx="1029" cy="281" r="0.7" fill="#ffffff" opacity="0.10"/><circle cx="472" cy="189" r="2.3" fill="#ffffff" opacity="0.47"/><circle cx="106" cy="546" r="2.0" fill="#ffffff" opacity="0.14"/><circle cx="785" cy="174" r="2.0" fill="#ffffff" opacity="0.25"/><circle cx="591" cy="485" r="3.0" fill="#ffffff" opacity="0.25"/><circle cx="31" cy="244" r="2.4" fill="#ffffff" opacity="0.35"/><circle cx="1247" cy="195" r="2.3" fill="#ffffff" opacity="0.18"/><circle cx="1421" cy="600" r="2.7" fill="#ffffff" opacity="0.35"/><circle cx="1150" cy="467" r="1.9" fill="#ffffff" opacity="0.41"/><circle cx="129" cy="84" r="1.0" fill="#ffffff" opacity="0.43"/><circle cx="1116" cy="110" r="0.8" fill="#ffffff" opacity="0.40"/><circle cx="1161" cy="570" r="2.1" fill="#ffffff" opacity="0.37"/><circle cx="970" cy="321" r="2.0" fill="#ffffff" opacity="0.12"/><circle cx="328" cy="337" r="2.9" fill="#ffffff" opacity="0.21"/><circle cx="52" cy="575" r="1.8" fill="#ffffff" opacity="0.35"/><circle cx="363" cy="570" r="2.4" fill="#ffffff" opacity="0.47"/><circle cx="146" cy="404" r="2.4" fill="#ffffff" opacity="0.23"/><circle cx="310" cy="311" r="2.9" fill="#ffffff" opacity="0.24"/><circle cx="37" cy="461" r="1.3" fill="#ffffff" opacity="0.28"/><circle cx="805" cy="309" r="2.0" fill="#ffffff" opacity="0.27"/><circle cx="1148" cy="478" r="2.3" fill="#ffffff" opacity="0.48"/><circle cx="994" cy="198" r="1.2" fill="#ffffff" opacity="0.11"/><circle cx="897" cy="412" r="2.8" fill="#ffffff" opacity="0.19"/><circle cx="429" cy="455" r="2.6" fill="#ffffff" opacity="0.30"/><circle cx="461" cy="39" r="2.9" fill="#ffffff" opacity="0.46"/><circle cx="1551" cy="483" r="2.8" fill="#ffffff" opacity="0.47"/><circle cx="1094" cy="241" r="0.9" fill="#ffffff" opacity="0.24"/><circle cx="1525" cy="348" r="1.0" fill="#ffffff" opacity="0.35"/><circle cx="859" cy="484" r="1.0" fill="#ffffff" opacity="0.46"/><circle cx="1532" cy="265" r="1.6" fill="#ffffff" opacity="0.25"/><circle cx="792" cy="76" r="2.8" fill="#ffffff" opacity="0.42"/><circle cx="525" cy="616" r="3.1" fill="#ffffff" opacity="0.30"/><circle cx="1059" cy="397" r="1.6" fill="#ffffff" opacity="0.15"/><circle cx="157" cy="484" r="2.2" fill="#ffffff" opacity="0.48"/><circle cx="1171" cy="244" r="1.6" fill="#ffffff" opacity="0.26"/><circle cx="694" cy="326" r="3.0" fill="#ffffff" opacity="0.38"/><circle cx="1086" cy="522" r="2.0" fill="#ffffff" opacity="0.21"/><circle cx="247" cy="173" r="1.2" fill="#ffffff" opacity="0.50"/><circle cx="581" cy="603" r="1.2" fill="#ffffff" opacity="0.45"/><circle cx="1456" cy="88" r="2.9" fill="#ffffff" opacity="0.33"/><circle cx="1587" cy="608" r="2.3" fill="#ffffff" opacity="0.38"/><circle cx="203" cy="7" r="2.2" fill="#ffffff" opacity="0.41"/><circle cx="919" cy="565" r="0.8" fill="#ffffff" opacity="0.15"/><circle cx="1066" cy="172" r="2.1" fill="#ffffff" opacity="0.43"/><circle cx="1471" cy="191" r="1.0" fill="#ffffff" opacity="0.25"/><circle cx="1281" cy="402" r="2.2" fill="#ffffff" opacity="0.17"/><circle cx="233" cy="375" r="2.8" fill="#ffffff" opacity="0.26"/><circle cx="568" cy="285" r="2.6" fill="#ffffff" opacity="0.27"/><circle cx="238" cy="120" r="3.0" fill="#ffffff" opacity="0.34"/><circle cx="380" cy="146" r="1.6" fill="#ffffff" opacity="0.41"/><circle cx="1130" cy="487" r="2.3" fill="#ffffff" opacity="0.27"/><circle cx="332" cy="414" r="1.9" fill="#ffffff" opacity="0.42"/><circle cx="1104" cy="277" r="0.8" fill="#ffffff" opacity="0.17"/><circle cx="90" cy="231" r="2.3" fill="#ffffff" opacity="0.11"/><circle cx="34" cy="105" r="1.5" fill="#ffffff" opacity="0.16"/><circle cx="1543" cy="315" r="0.7" fill="#ffffff" opacity="0.29"/><circle cx="1382" cy="308" r="1.1" fill="#ffffff" opacity="0.29"/><circle cx="546" cy="153" r="1.9" fill="#ffffff" opacity="0.24"/><ellipse cx="1300" cy="880" rx="420" ry="150" fill="#1e2b18" opacity="0.9"/>
        <ellipse cx="1300" cy="880" rx="340" ry="115" fill="#ffffff" opacity="0.1"/>
        <rect y="700" width="1600" height="200" fill="#3f3a15" opacity="0.55"/></svg>
