<svg xmlns="http://www.w3.org/2000/svg" width="800" height="600" viewBox="0 0 800 600" role="img">
  <rect width="800" height="600" fill="#f3ecdd"/>
  <rect width="800" height="600" fill="none"/>
  <line x1="0" y1="80" x2="800" y2="80" stroke="#e2d6bf" stroke-width="2"/><line x1="0" y1="200" x2="800" y2="200" stroke="#e2d6bf" stroke-width="2"/><line x1="0" y1="320" x2="800" y2="320" stroke="#e2d6bf" stroke-width="2"/><line x1="0" y1="440" x2="800" y2="440" stroke="#e2d6bf" stroke-width="2"/><line x1="0" y1="560" x2="800" y2="560" stroke="#e2d6bf" stroke-width="2"/>
  <line x1="100" y1="0" x2="100" y2="600" stroke="#e2d6bf" stroke-width="2"/><line x1="260" y1="0" x2="260" y2="600" stroke="#e2d6bf" stroke-width="2"/><line x1="420" y1="0" x2="420" y2="600" stroke="#e2d6bf" stroke-width="2"/><line x1="580" y1="0" x2="580" y2="600" stroke="#e2d6bf" stroke-width="2"/><line x1="720" y1="0" x2="720" y2="600" stroke="#e2d6bf" stroke-width="2"/>
  <path d="M0 420 Q200 380 400 430 T800 400 V600 H0 Z" fill="#cfe0e6"/>
  <rect x="60" y="120" width="180" height="120" rx="10" fill="#e7dcc6"/>
  <rect x="300" y="90" width="150" height="100" rx="10" fill="#e7dcc6"/>
  <rect x="540" y="150" width="190" height="130" rx="10" fill="#e7dcc6"/>
  <rect x="90" y="300" width="160" height="90" rx="10" fill="#e7dcc6"/>
  <path d="M0 270 H800" stroke="#d9b36a" stroke-width="26" opacity="0.85"/>
  <path d="M0 270 H800" stroke="#fff" stroke-width="3" stroke-dasharray="18 16"/>
  <path d="M460 0 V600" stroke="#e0cfa4" stroke-width="18" opacity="0.8"/>
  <text x="24" y="258" font-family="Georgia, serif" font-size="22" fill="#8a7350">Fort Road</text>
  <g transform="translate(520 330)">
    <rect x="-70" y="30" width="140" height="16" rx="6" fill="#d8c49a"/>
    <path d="M-46 30 a46 46 0 0 1 92 0 Z" fill="#e6d3ab"/>
    <rect x="-62" y="-10" width="10" height="40" fill="#e6d3ab"/><circle cx="-57" cy="-14" r="8" fill="#e6d3ab"/>
    <rect x="52" y="-10" width="10" height="40" fill="#e6d3ab"/><circle cx="57" cy="-14" r="8" fill="#e6d3ab"/>
    <text x="-76" y="70" font-family="Georgia, serif" font-size="19" fill="#8a7350">Badshahi Mosque</text>
  </g>
  <g transform="translate(300 230)">
    <ellipse cx="0" cy="62" rx="26" ry="8" fill="#000" opacity="0.18"/>
    <path d="M0 58 C-34 14 -34 -8 -34 -18 A34 34 0 1 1 34 -18 C34 -8 34 14 0 58 Z" fill="#d98324"/>
    <circle cx="0" cy="-18" r="13" fill="#fdf9f3"/>
    <text x="-64" y="-52" font-family="Georgia, serif" font-size="21" fill="#231d17">Saffron &amp; Sage</text>
  </g>
</svg>
